<svg id="svg785" xmlns="http://www.w3.org/2000/svg" xmlns:xlink="http://www.w3.org/1999/xlink" viewBox="0 0 1002 174">
  <defs>
    <style>.cls-1{fill:#BDCAC3;stroke-linejoin:round;}.cls-1,.cls-2{stroke:#BDCAC3;stroke-linecap:round;stroke-width:2px;fill-rule:evenodd;}.cls-2{stroke-miterlimit:10;fill:#BDCAC3;}</style>
    <style>
      #M {
        stroke-dasharray: 1000;
        stroke:#BDCAC3;
        fill-opacity:0;
        animation: drawM 3s;
        animation-fill-mode: forwards;
      }
      #P {
        stroke-dasharray: 1000;
        stroke:#BDCAC3;
        fill-opacity:0;
        animation: drawP 3s;
        animation-fill-mode: forwards;
      }
      #R {
        stroke-dasharray: 1000;
        stroke:#BDCAC3;
        fill-opacity:0;
        animation: drawP 3s;
        animation-fill-mode: forwards;
      }
      #A {
        stroke-dasharray: 1000;
        stroke:#BDCAC3;
        fill-opacity:0;
        animation: drawP 3s ;
        animation-fill-mode: forwards;
      }
      #logo {
        stroke-dasharray: 1000;
        stroke:#BDCAC3;
        fill:url(#li);
        fill-opacity:0;
        animation: drawLogo 3s ;
        animation-fill-mode: forwards;
      }
      #I {
        stroke-dasharray: 1000;
        stroke:#BDCAC3;
        stroke-width:2;
        fill-opacity:0;
        animation: drawP 3s ;
        animation-fill-mode: forwards;
      }

      @keyframes drawM {
        0% {
          stroke-dashoffset:1000;
          fill-opacity:0;
          stroke-opacity:1;
        }
        80% {
          stroke-dashoffset: 0;
          fill-opacity:0;
          stroke-opacity:1;
        }
        100%{
          stroke-dashoffset: 0;
          fill-opacity:1;
          stroke-opacity:0;
        }
      }
      @keyframes drawP {
        0% {
          stroke-dashoffset:1000;
          fill-opacity:0;
          stroke-opacity:1;
        }
        80% {
          stroke-dashoffset: 0;
          fill-opacity:0;
          stroke-opacity:1;
        }
        100%{
          stroke-dashoffset: 0;
          fill-opacity:1;
          stroke-opacity:0;
        }
      }

      @keyframes drawLogo {
        0% {
          stroke-dashoffset:1000;
          fill-opacity:0;
          stroke-opacity:1;
        }
        80% {
          stroke-dashoffset: 0;
          fill-opacity:0;
          stroke-opacity:1;
        }
        100% {
          stroke-dashoffset: 0;
          fill-opacity:1;
          stroke-opacity:0;
        }
      }
    </style>
    <linearGradient id="li" x1="200.33" y1="505.69" x2="201.33" y2="505.69" gradientTransform="matrix(177.31, -89.33, -89.15, -177.65, 9705.34, 107891.94)" gradientUnits="userSpaceOnUse">
      <stop offset="0" stop-color="#BDCAC3">
        <animate attributeName="stop-color" from="#BDCAC3" to="#fe2105" begin="3s" dur="0.5s" fill="freeze" />
      </stop>
      <stop offset="0.27" stop-color="#BDCAC3">
        <animate attributeName="stop-color" from="#BDCAC3" to="#ff5b00" begin="3.13s" dur="0.37s" fill="freeze" />
      </stop>
      <stop offset="1" stop-color="#BDCAC3">
        <animate attributeName="stop-color" from="#BDCAC3" to="#96e9ea" begin="3.3s" dur="0.2s" fill="freeze" />
      </stop>
    </linearGradient>
  </defs>
  <title>Parami</title>
  <g id="layer1">
    <g id="group2">
      <path id="M" class="cls-1" d="M773.19.15a10.31,10.31,0,0,1,8.19,4.07l52.4,68.9a7.28,7.28,0,0,0,11.59,0l52.39-68.9A10.28,10.28,0,0,1,906,.15h6.6a7,7,0,0,1,7,7V167.41a4,4,0,0,1-4,4H904.82a4,4,0,0,1-4-4V39.14A2.72,2.72,0,0,0,896,37.5L850.73,97a14,14,0,0,1-22.3,0L783.16,37.46a2.72,2.72,0,0,0-4.88,1.65v61.4a4,4,0,0,1-4,4H763.55a4,4,0,0,1-4-4V7.16a7,7,0,0,1,7-7Zm1.67,114.08a3.41,3.41,0,0,1,3.39,3.43V167.8a3.41,3.41,0,0,1-3.39,3.43H763.13a3.42,3.42,0,0,1-3.4-3.43V117.66a3.42,3.42,0,0,1,3.4-3.43Z" transform="translate(1 1)" />
      <path id="A" class="cls-1" d="M727.42,167,652.34,9.74A16.26,16.26,0,0,0,637.67.46h-2.46a16.27,16.27,0,0,0-14.67,9.28L545.46,167a3.19,3.19,0,0,0,2.86,4.56h11.2a6.94,6.94,0,0,0,6.25-3.95L628.1,37.16a8.83,8.83,0,0,1,7.9-5h.88a8.83,8.83,0,0,1,7.9,5l62.33,130.43a6.94,6.94,0,0,0,6.25,3.95h11.2a3.19,3.19,0,0,0,2.86-4.56" transform="translate(1 1)" />
      <path id="R" class="cls-1" d="M473.58.46S521.21,2.73,520.37,52c-.26,15.07-2.06,23.93-4.44,28.09-.68,1.19-11,24.9-42.35,24.9h-8.41l47.56,62.33a2.82,2.82,0,0,1-2.24,4.54H495.33a5,5,0,0,1-3.94-1.95L441.67,105H400.61a7.31,7.31,0,0,0-7.3,7.2v56.06a3.75,3.75,0,0,1-3.75,3.76H378.39a3.75,3.75,0,0,1-3.75-3.76V99.62A13.37,13.37,0,0,1,388,86.23h84c28.47,0,30.22-20.86,30.22-32.77,0-30.69-28.58-34.25-28.58-34.25H379.7a9.3,9.3,0,0,1-7.4-3.69l-6.63-8.79A3.91,3.91,0,0,1,368.76.46Z" transform="translate(1 1)" />
      <path id="P" class="cls-1" d="M108.39.46H3.88A3.89,3.89,0,0,0,.8,6.7l6.61,8.75a9.29,9.29,0,0,0,7.38,3.67h93.6s28.49,3.55,28.49,34.1c0,11.86-1.74,32.63-30.12,32.63H18.65a8.9,8.9,0,0,0-8.9,8.92v72.71a3.74,3.74,0,0,0,3.73,3.75H24.63a3.74,3.74,0,0,0,3.73-3.75V111.8a7.28,7.28,0,0,1,7.28-7.29h72.75c31.21,0,41.54-23.6,42.22-24.79,2.38-4.14,4.18-13,4.43-28,.84-49-46.65-51.3-46.65-51.3" transform="translate(1 1)" />
      <path id="I" class="cls-1" d="M998.22,171.54H983a1.78,1.78,0,0,1-1.78-1.78V1.78A1.78,1.78,0,0,1,983,0h15.21A1.78,1.78,0,0,1,1000,1.78v168a1.78,1.78,0,0,1-1.78,1.78" transform="translate(1 1)" />
      <path id="logo" class="cls-2" d="M320.92,160.63c-9,.07-134.09,0-134.09,0L318,131.19s9.39,16.1,10.94,18.85,1.06,10.52-8,10.59ZM295.08,91.37l17.26,29.93L184.4,151.44ZM179.77,142.29l92.42-90.66,17.3,30Zm61.09-123a7.47,7.47,0,0,1,13,0L267,42.21l-92.64,92.56ZM260.81,9.06a15.6,15.6,0,0,0-27.05,0S157.6,141.52,153.35,148.87,152.6,172,167.8,172s139.47-.07,158.09,0,18.74-17.4,15.16-23.61L260.81,9.06Z" transform="translate(1 1)"></path>
    </g>
  </g>
</svg>
